<?xml version="1.0" encoding="utf-8"?>
<!-- Generator: Adobe Illustrator 24.0.2, SVG Export Plug-In . SVG Version: 6.00 Build 0)  -->
<svg version="1.1" id="Layer_1" xmlns="http://www.w3.org/2000/svg" xmlns:xlink="http://www.w3.org/1999/xlink" x="0px" y="0px"
	viewBox="0 0 255.68 214.511" enable-background="new 0 0 255.68 214.511" xml:space="preserve" width="54" height="46">
	<g>
		<path fill-rule="evenodd" clip-rule="evenodd" fill="#364548" d="M38.617,173.984v-16.363c0-2.149,1.344-3.877,3.57-3.877h0.617
			c2.225,0,3.563,1.729,3.563,3.877v34.448c0,8.4-4.151,15.084-11.382,19.342c-3.353,1.973-7.058,2.985-10.945,2.985h-1.537
			c-8.402,0-15.078-4.153-19.342-11.381c-1.979-3.355-2.984-7.055-2.984-10.946v-1.535c0-8.403,4.153-15.083,11.379-19.348
			c3.356-1.981,7.056-2.985,10.948-2.985h1.537C29.725,168.2,34.549,170.404,38.617,173.984L38.617,173.984z M7.924,191.3
			c0,6.068,2.941,10.63,8.258,13.539c2.15,1.177,4.484,1.809,6.937,1.809c5.956,0,10.373-2.81,13.421-7.857
			c1.417-2.348,2.077-4.916,2.077-7.648c0-5.26-2.49-9.365-6.729-12.414c-2.57-1.848-5.463-2.775-8.618-2.775
			c-6.492,0-11.163,3.279-13.968,9.106C8.356,187.029,7.924,189.121,7.924,191.3L7.924,191.3z M73.248,168.2h1.074
			c8.978,0,15.806,4.355,20.133,12.192c1.73,3.135,2.656,6.556,2.656,10.141v1.535c0,8.4-4.142,15.093-11.385,19.343
			c-3.353,1.967-7.057,2.984-10.943,2.984h-1.534c-8.402,0-15.079-4.153-19.342-11.381c-1.979-3.355-2.986-7.055-2.986-10.946v-1.535
			c0-8.404,4.168-15.062,11.376-19.346C65.647,169.196,69.354,168.2,73.248,168.2L73.248,168.2z M58.667,191.3
			c0,5.89,2.891,10.223,7.866,13.269c2.336,1.431,4.908,2.079,7.638,2.079c5.82,0,10.122-2.951,13.116-7.863
			c1.428-2.342,2.074-4.914,2.074-7.641c0-5.477-2.638-9.661-7.148-12.693c-2.472-1.663-5.223-2.496-8.199-2.496
			c-6.492,0-11.163,3.279-13.966,9.106C59.1,187.029,58.667,189.121,58.667,191.3L58.667,191.3z M129.324,176.573
			c-1.17-0.548-3.36-0.73-4.625-0.778c-6.474-0.244-11.158,3.402-13.906,9.113c-0.948,1.97-1.382,4.055-1.382,6.235
			c0,6.637,3.484,11.284,9.409,14.116c2.164,1.034,4.958,1.231,7.323,1.231c2.081,0,5.02-1.275,6.866-2.152l0.32-0.152h1.432
			l0.158,0.032c1.763,0.366,3.093,1.484,3.093,3.38v0.767c0,4.717-8.622,5.798-11.912,6.027c-11.61,0.804-20.293-5.573-23.603-16.647
			c-0.575-1.922-0.834-3.833-0.834-5.837v-1.533c0-8.403,4.169-15.058,11.376-19.34c3.352-1.99,7.058-2.99,10.951-2.99h1.535
			c4.13,0,7.934,1.173,11.344,3.502l0.281,0.194l0.177,0.292c0.368,0.611,0.685,1.316,0.685,2.043v0.767
			c0,1.978-1.48,3.041-3.266,3.386l-0.148,0.026h-0.458C132.984,178.256,130.356,177.059,129.324,176.573L129.324,176.573z
			M154.458,181.82c3.009-3.014,6.03-6.022,9.085-8.986c0.852-0.826,4.075-4.326,5.343-4.326h1.388l0.158,0.032
			c1.767,0.367,3.092,1.487,3.092,3.386v0.766c0,1.296-1.518,2.802-2.355,3.688c-1.78,1.887-3.655,3.713-5.477,5.561l-9.361,9.503
			c4.031,4.04,8.058,8.084,12.056,12.155c1.106,1.126,2.212,2.253,3.301,3.395c0.385,0.405,0.953,0.909,1.276,1.471
			c0.347,0.525,0.56,1.118,0.56,1.751v0.801l-0.045,0.184c-0.435,1.767-1.557,3.194-3.517,3.194h-0.616
			c-1.282,0-2.73-1.451-3.609-2.279c-1.809-1.706-3.557-3.5-5.33-5.243l-5.949-5.84v9.334c0,2.15-1.346,3.877-3.569,3.877h-0.611
			c-2.225,0-3.569-1.728-3.569-3.877v-52.596c0-2.151,1.345-3.871,3.569-3.871h0.611c2.223,0,3.569,1.72,3.569,3.871V181.82
			L154.458,181.82z M251.035,168.507h0.769c2.324,0,3.875,1.566,3.875,3.876c0,3.208-3.067,4.029-5.72,4.029
			c-3.48,0-6.802,2.107-9.201,4.47c-2.992,2.949-4.301,6.726-4.301,10.878v18.759c0,2.151-1.342,3.876-3.57,3.876h-0.611
			c-2.227,0-3.569-1.726-3.569-3.876v-19.836c0-7.617,3.708-13.835,9.889-18.196C242.288,169.883,246.516,168.507,251.035,168.507
			L251.035,168.507z M195.96,205.683c2.82,0.984,6.035,0.844,8.928,0.34c1.479-0.629,5.264-2.279,6.656-2.038l0.217,0.036l0.2,0.099
			c0.849,0.412,1.661,0.995,2.095,1.859c1.014,2.028,0.527,4.065-1.465,5.216l-0.663,0.383c-7.351,4.243-15.168,3.655-22.495-0.308
			c-3.503-1.893-6.183-4.705-8.16-8.131l-0.463-0.801c-4.718-8.172-4.082-16.768,1.24-24.539c1.838-2.686,4.238-4.761,7.046-6.384
			l1.062-0.613c6.922-3.996,14.341-3.723,21.45-0.215c3.822,1.886,6.919,4.697,9.054,8.394l0.383,0.666
			c1.55,2.686-0.458,5.027-2.531,6.627c-2.406,1.856-4.835,4.09-7.141,6.08C206.233,196.792,201.099,201.241,195.96,205.683
			L195.96,205.683z M189.306,201.009c5.751-4.931,11.503-9.865,17.237-14.816c1.96-1.69,4.109-3.444,6.053-5.222
			c-1.561-1.966-4.166-3.383-6.381-4.228c-4.469-1.703-8.876-1.131-12.975,1.235c-5.366,3.098-7.651,8.031-7.45,14.171
			c0.079,2.418,0.729,4.747,2.013,6.804C188.255,199.679,188.76,200.36,189.306,201.009L189.306,201.009z"/>
			<path fill-rule="evenodd" clip-rule="evenodd" fill="#364548" d="M147.488,45.732h22.866v23.375h11.562
				c5.339,0,10.831-0.951,15.887-2.664c2.484-0.842,5.273-2.015,7.724-3.489c-3.228-4.214-4.876-9.536-5.361-14.781
				c-0.659-7.134,0.78-16.42,5.609-22.004l2.404-2.78l2.864,2.302c7.211,5.794,13.276,13.889,14.345,23.118
				c8.683-2.554,18.878-1.95,26.531,2.467l3.14,1.812l-1.653,3.226c-6.473,12.633-20.005,16.546-33.235,15.854
				c-19.797,49.308-62.898,72.653-115.157,72.653c-26.999,0-51.77-10.093-65.876-34.047l-0.231-0.391l-2.055-4.181
				c-4.768-10.544-6.352-22.095-5.277-33.637l0.322-3.457H51.45V45.732h22.865V22.866h45.733V0h27.44V45.732"/>
				<path fill-rule="evenodd" clip-rule="evenodd" fill="#22A0C8" d="M221.57,54.38c1.533-11.915-7.384-21.275-12.914-25.718
					c-6.373,7.368-7.363,26.678,2.635,34.807c-5.58,4.956-17.337,9.448-29.376,9.448H35.37c-1.171,12.567,1.036,24.14,6.074,34.045
					l1.667,3.049c1.056,1.791,2.209,3.52,3.455,5.185h0.001c6.025,0.387,11.579,0.521,16.661,0.408h0.002
					c9.987-0.221,18.136-1.399,24.312-3.54c0.92-0.32,1.922,0.168,2.24,1.087c0.318,0.918-0.169,1.921-1.087,2.24
					c-0.821,0.284-1.677,0.551-2.562,0.803c-0.001,0.001-0.002,0.001-0.003,0.001c-4.863,1.388-10.077,2.323-16.805,2.738
					c0.399,0.006-0.416,0.06-0.418,0.061c-0.229,0.014-0.517,0.047-0.747,0.059c-2.648,0.148-5.506,0.179-8.428,0.179
					c-3.196,0-6.343-0.061-9.862-0.239l-0.09,0.059c12.21,13.724,31.302,21.955,55.233,21.955c50.648,0,93.609-22.452,112.632-72.858
					c13.497,1.385,26.468-2.057,32.368-13.574C240.615,49.153,228.529,50.882,221.57,54.38"/>
					<path fill-rule="evenodd" clip-rule="evenodd" fill="#37B1D9" d="M221.57,54.38c1.533-11.915-7.384-21.275-12.914-25.718
						c-6.373,7.368-7.363,26.678,2.635,34.807c-5.58,4.956-17.337,9.448-29.376,9.448H44.048c-0.598,19.246,6.544,33.855,19.181,42.687
						h0.002c9.987-0.221,18.136-1.399,24.312-3.54c0.92-0.32,1.922,0.168,2.24,1.087c0.318,0.918-0.169,1.921-1.087,2.24
						c-0.821,0.284-1.677,0.551-2.562,0.803c-0.001,0.001-0.002,0.001-0.003,0.001c-4.863,1.388-10.525,2.443-17.254,2.858
						c-0.002,0-0.163-0.156-0.165-0.155c17.237,8.842,42.23,8.81,70.885-2.197c32.131-12.343,62.029-35.86,82.89-62.757
						C222.173,54.086,221.866,54.231,221.57,54.38"/>
						<path fill-rule="evenodd" clip-rule="evenodd" fill="#1B81A5" d="M35.645,88.186c0.911,6.732,2.88,13.035,5.8,18.776l1.667,3.049
							c1.056,1.791,2.209,3.52,3.455,5.185c6.026,0.387,11.581,0.521,16.664,0.408c9.987-0.221,18.136-1.399,24.312-3.54
							c0.92-0.32,1.922,0.168,2.24,1.087c0.318,0.918-0.169,1.921-1.087,2.24c-0.821,0.284-1.677,0.551-2.562,0.803
							c-0.001,0.001-0.002,0.001-0.003,0.001c-4.863,1.388-10.495,2.383-17.224,2.798c-0.231,0.014-0.634,0.017-0.867,0.029
							c-2.647,0.149-5.476,0.239-8.398,0.239c-3.195,0-6.463-0.061-9.981-0.239c12.21,13.724,31.421,21.985,55.352,21.985
							c43.36,0,81.084-16.458,102.979-52.822H35.645"/>
							<path fill-rule="evenodd" clip-rule="evenodd" fill="#1D91B4" d="M45.367,88.186c2.592,11.819,8.821,21.099,17.864,27.418
								c9.987-0.221,18.136-1.399,24.312-3.54c0.92-0.32,1.922,0.168,2.24,1.087c0.318,0.918-0.169,1.921-1.087,2.24
								c-0.821,0.284-1.677,0.551-2.562,0.803c-0.001,0.001-0.002,0.001-0.003,0.001c-4.863,1.388-10.615,2.383-17.343,2.798
								c17.236,8.84,42.157,8.713,70.81-2.293c17.334-6.66,34.017-16.574,48.984-28.515H45.367"/>
								<path fill-rule="evenodd" clip-rule="evenodd" fill="#23A3C2" d="M55.261,49.543h19.817v19.818H55.261V49.543z M56.911,51.195
									h1.564V67.71h-1.564V51.195z M59.852,51.195h1.627V67.71h-1.627V51.195z M62.853,51.195h1.627V67.71h-1.627V51.195z M65.857,51.195
									h1.627V67.71h-1.627V51.195z M68.86,51.195h1.627V67.71H68.86V51.195z M71.862,51.195h1.565V67.71h-1.565V51.195z"/>
									<path fill-rule="evenodd" clip-rule="evenodd" fill="#23A3C2" d="M78.126,26.677h19.819v19.817H78.126V26.677z M79.778,28.329
										h1.563v16.514h-1.563V28.329z M82.719,28.329h1.625v16.514h-1.625V28.329z M85.72,28.329h1.627v16.514H85.72V28.329z
										M88.723,28.329h1.627v16.514h-1.627V28.329z M91.726,28.329h1.627v16.514h-1.627V28.329z M94.728,28.329h1.566v16.514h-1.566
										V28.329z"/>
										<path fill-rule="evenodd" clip-rule="evenodd" fill="#34BBDE" d="M78.126,49.543h19.819v19.818H78.126V49.543z M79.778,51.195
											h1.563V67.71h-1.563V51.195z M82.719,51.195h1.625V67.71h-1.625V51.195z M85.72,51.195h1.627V67.71H85.72V51.195z M88.723,51.195
											h1.627V67.71h-1.627V51.195z M91.726,51.195h1.627V67.71h-1.627V51.195z M94.728,51.195h1.566V67.71h-1.566V51.195z"/>
											<path fill-rule="evenodd" clip-rule="evenodd" fill="#23A3C2" d="M100.993,49.543h19.818v19.818h-19.818V49.543z M102.644,51.195
												h1.563V67.71h-1.563V51.195z M105.584,51.195h1.627V67.71h-1.627V51.195z M108.587,51.195h1.627V67.71h-1.627V51.195z
												M111.59,51.195h1.627V67.71h-1.627V51.195z M114.592,51.195h1.628V67.71h-1.628V51.195z M117.595,51.195h1.564V67.71h-1.564
												V51.195z"/>
												<path fill-rule="evenodd" clip-rule="evenodd" fill="#34BBDE" d="M100.993,26.677h19.818v19.817h-19.818V26.677z M102.644,28.329
													h1.563v16.514h-1.563V28.329z M105.584,28.329h1.627v16.514h-1.627V28.329z M108.587,28.329h1.627v16.514h-1.627V28.329z
													M111.59,28.329h1.627v16.514h-1.627V28.329z M114.592,28.329h1.628v16.514h-1.628V28.329z M117.595,28.329h1.564v16.514h-1.564
													V28.329z"/>
													<path fill-rule="evenodd" clip-rule="evenodd" fill="#34BBDE" d="M123.859,49.543h19.817v19.818h-19.817V49.543z M125.511,51.195
														h1.563V67.71h-1.563V51.195z M128.451,51.195h1.627V67.71h-1.627V51.195z M131.453,51.195h1.627V67.71h-1.627V51.195z
														M134.456,51.195h1.627V67.71h-1.627V51.195z M137.459,51.195h1.627V67.71h-1.627V51.195z M140.462,51.195h1.564V67.71h-1.564
														V51.195z"/>
														<path fill-rule="evenodd" clip-rule="evenodd" fill="#23A3C2" d="M123.859,26.677h19.817v19.817h-19.817V26.677z M125.511,28.329
															h1.563v16.514h-1.563V28.329z M128.451,28.329h1.627v16.514h-1.627V28.329z M131.453,28.329h1.627v16.514h-1.627V28.329z
															M134.456,28.329h1.627v16.514h-1.627V28.329z M137.459,28.329h1.627v16.514h-1.627V28.329z M140.462,28.329h1.564v16.514h-1.564
															V28.329z"/>
															<path fill-rule="evenodd" clip-rule="evenodd" fill="#34BBDE" d="M123.859,3.811h19.817v19.818h-19.817V3.811z M125.511,5.461
																h1.563v16.516h-1.563V5.461z M128.451,5.461h1.627v16.516h-1.627V5.461z M131.453,5.461h1.627v16.516h-1.627V5.461z M134.456,5.461
																h1.627v16.516h-1.627V5.461z M137.459,5.461h1.627v16.516h-1.627V5.461z M140.462,5.461h1.564v16.516h-1.564V5.461z"/>
																<path fill-rule="evenodd" clip-rule="evenodd" fill="#23A3C2" d="M146.725,49.543h19.818v19.818h-19.818V49.543z M148.376,51.195
																	h1.565V67.71h-1.565V51.195z M151.316,51.195h1.627V67.71h-1.627V51.195z M154.319,51.195h1.627V67.71h-1.627V51.195z
																	M157.321,51.195h1.627V67.71h-1.627V51.195z M160.325,51.195h1.626V67.71h-1.626V51.195z M163.327,51.195h1.564V67.71h-1.564
																	V51.195z"/>
																	<path fill-rule="evenodd" clip-rule="evenodd" fill="#D3ECEC" d="M96.704,101.492c3.019,0,5.467,2.449,5.467,5.468
																		c0,3.019-2.448,5.467-5.467,5.467c-3.02,0-5.468-2.448-5.468-5.467C91.236,103.94,93.684,101.492,96.704,101.492"/>
																		<path fill-rule="evenodd" clip-rule="evenodd" fill="#364548" d="M96.704,103.043c0.5,0,0.977,0.094,1.418,0.265
																			c-0.477,0.276-0.8,0.793-0.8,1.384c0,0.883,0.716,1.597,1.598,1.597c0.605,0,1.13-0.336,1.402-0.832
																			c0.192,0.462,0.298,0.97,0.298,1.502c0,2.162-1.753,3.915-3.916,3.915c-2.162,0-3.916-1.753-3.916-3.915
																			C92.788,104.796,94.542,103.043,96.704,103.043"/>
																			<path fill-rule="evenodd" clip-rule="evenodd" fill="#364548" d="M0,90.162h254.327c-5.538-1.405-17.521-3.302-15.545-10.56
																				c-10.069,11.652-34.353,8.174-40.481,2.429c-6.825,9.898-46.555,6.136-49.326-1.575c-8.556,10.041-35.067,10.041-43.623,0
																				c-2.772,7.711-42.501,11.473-49.327,1.575c-6.128,5.746-30.41,9.223-40.48-2.429C17.522,86.86,5.539,88.758,0,90.162"/>
																				<path fill-rule="evenodd" clip-rule="evenodd" fill="#BDD9D7" d="M111.237,140.89c-13.54-6.425-20.972-15.159-25.107-24.694
																					c-5.029,1.436-11.075,2.353-18.099,2.747c-2.646,0.148-5.43,0.224-8.351,0.224c-3.368,0-6.916-0.1-10.642-0.297
																					c12.417,12.409,27.692,21.964,55.975,22.138C107.102,141.008,109.175,140.968,111.237,140.89"/>
																					<path fill-rule="evenodd" clip-rule="evenodd" fill="#D3ECEC" d="M91.16,124.994c-1.873-2.543-3.691-5.739-5.026-8.799
																						c-5.03,1.436-11.077,2.354-18.103,2.749C72.857,121.563,79.758,123.99,91.16,124.994"/>
																					</g>
																				</svg>
