<?xml version="1.0" encoding="utf-8"?>
<!-- Generator: Adobe Illustrator 24.0.2, SVG Export Plug-In . SVG Version: 6.00 Build 0)  -->
<svg version="1.1" id="Layer_1" xmlns="http://www.w3.org/2000/svg" xmlns:xlink="http://www.w3.org/1999/xlink" x="0px" y="0px"
	viewBox="0 0 133.369 38" enable-background="new 0 0 133.369 38" xml:space="preserve" width="133" height="38">
	<g>
		<path fill="#3A3A3A" d="M124.32,15.715c-0.12,0.024-0.24,0.289-0.24,0.433c-0.024,0.963-0.048,3.514-0.048,5.246
			c0,0.048,0.072,0.144,0.144,0.144c0.361,0.024,1.227,0.048,1.973,0.048c1.035,0,1.636-0.144,1.974-0.288
			c0.866-0.433,1.275-1.372,1.275-2.407c0-2.334-1.636-3.225-4.067-3.225C125.163,15.643,124.682,15.643,124.32,15.715L124.32,15.715
			z M130.53,26.472c0-2.383-1.757-3.706-4.934-3.706c-0.144,0-1.155-0.024-1.396,0.024c-0.072,0.024-0.168,0.072-0.168,0.145
			c0,1.708-0.024,4.428,0.048,5.487c0.048,0.457,0.385,1.107,0.794,1.299c0.433,0.241,1.42,0.289,2.094,0.289
			C128.869,30.01,130.53,28.951,130.53,26.472L130.53,26.472z M119.411,14.392c0.24,0,0.962,0.072,2.815,0.072
			c1.757,0,3.153-0.048,4.861-0.048c2.094,0,4.982,0.746,4.982,3.875c0,1.54-1.083,2.768-2.503,3.369
			c-0.072,0.024-0.072,0.072,0,0.096c2.021,0.506,3.803,1.757,3.803,4.115c0,2.311-1.444,3.779-3.538,4.693
			c-1.276,0.553-2.864,0.746-4.476,0.746c-1.227,0-4.524-0.144-6.353-0.096c-0.192-0.072,0.168-0.939,0.337-1.083
			c0.433-0.024,0.77-0.048,1.228-0.193c0.65-0.168,0.722-0.361,0.818-1.347c0.048-0.842,0.048-3.827,0.048-5.944
			c0-2.912,0.024-4.885,0-5.848c-0.024-0.746-0.289-0.987-0.818-1.131c-0.409-0.072-1.083-0.168-1.637-0.24
			C118.857,15.306,119.267,14.487,119.411,14.392L119.411,14.392z M105.525,29.36c0.578,0.457,1.709,0.649,2.72,0.649
			c1.299,0,2.599-0.24,3.851-1.372c1.276-1.155,2.166-2.936,2.166-5.775c0-2.72-1.035-4.934-3.153-6.233
			c-1.203-0.746-2.743-1.059-4.524-1.059c-0.529,0-1.035,0.024-1.347,0.168c-0.072,0.048-0.241,0.265-0.241,0.385
			c-0.048,0.481-0.048,4.187-0.048,6.354c0,2.238,0,5.367,0.048,5.728C104.996,28.566,105.164,29.12,105.525,29.36L105.525,29.36z
			M100.062,14.391c0.457,0,2.214,0.072,3.056,0.072c1.516,0,2.599-0.072,5.463-0.072c2.407,0,4.428,0.65,5.872,1.877
			c1.757,1.516,2.672,3.61,2.672,6.161c0,3.634-1.661,5.728-3.321,6.931c-1.66,1.227-3.826,1.949-6.907,1.949
			c-1.636,0-4.452-0.048-6.787-0.072h-0.024c-0.12-0.216,0.192-1.059,0.385-1.083c0.626-0.072,0.794-0.097,1.107-0.216
			c0.505-0.193,0.602-0.457,0.674-1.348c0.072-1.661,0.048-3.658,0.048-5.92c0-1.612,0.024-4.765-0.024-5.776
			c-0.072-0.842-0.433-1.059-1.155-1.203c-0.361-0.072-0.842-0.168-1.516-0.24C99.509,15.282,99.942,14.536,100.062,14.391
			L100.062,14.391z"/>
			<path fill="#3A3A3A" d="M70.943,30.299c-0.602-0.072-1.035-0.168-1.564-0.409c-0.072-0.048-0.193-0.289-0.193-0.385
				c-0.048-0.842-0.048-3.249-0.048-4.861c0-1.3-0.216-2.431-0.77-3.225c-0.65-0.915-1.588-1.444-2.792-1.444
				c-1.059,0-2.479,0.722-3.658,1.733c-0.024,0.024-0.216,0.193-0.192-0.072c0-0.265,0.048-0.794,0.072-1.155
				c0.024-0.337-0.168-0.505-0.168-0.505c-0.77,0.385-2.936,0.89-3.73,0.962c-0.577,0.121-0.722,0.674-0.12,0.867h0.024
				c0.649,0.192,1.083,0.409,1.419,0.626c0.241,0.192,0.217,0.457,0.217,0.674c0.024,1.805,0.024,4.572-0.048,6.089
				c-0.024,0.602-0.192,0.818-0.626,0.914l0.048-0.024c-0.337,0.072-0.602,0.144-1.011,0.192c-0.144,0.144-0.144,0.915,0,1.083
				c0.265,0,1.66-0.072,2.816-0.072c1.588,0,2.407,0.072,2.815,0.072c0.168-0.192,0.217-0.915,0.12-1.083
				c-0.457-0.024-0.794-0.072-1.107-0.168c-0.433-0.097-0.554-0.313-0.578-0.818c-0.048-1.276-0.048-3.971-0.048-5.8
				c0-0.505,0.144-0.746,0.288-0.891c0.554-0.481,1.444-0.818,2.238-0.818c0.77,0,1.275,0.241,1.66,0.554
				c0.529,0.433,0.698,1.059,0.77,1.516c0.12,1.035,0.072,3.08,0.072,4.861c0,0.963-0.072,1.203-0.433,1.323
				c-0.169,0.072-0.602,0.169-1.107,0.216c-0.168,0.169-0.12,0.915,0,1.083c0.698,0,1.516-0.072,2.719-0.072
				c1.492,0,2.455,0.072,2.84,0.072C70.991,31.189,71.039,30.491,70.943,30.299L70.943,30.299z M77.609,21.106
				c-1.275,0-2.07,0.987-2.07,2.527c0,1.564,0.698,3.369,2.671,3.369c0.337,0,0.963-0.144,1.251-0.481
				c0.457-0.433,0.77-1.299,0.77-2.214C80.232,22.309,79.245,21.106,77.609,21.106L77.609,21.106z M77.44,31.743
				c-0.481,0-0.818,0.144-1.035,0.265c-1.011,0.649-1.468,1.275-1.468,2.022c0,0.698,0.265,1.251,0.842,1.732
				c0.698,0.602,1.66,0.891,2.888,0.891c2.455,0,3.538-1.324,3.538-2.623c0-0.915-0.457-1.516-1.396-1.853
				C80.136,31.887,78.909,31.743,77.44,31.743L77.44,31.743z M77.609,38c-1.468,0-2.527-0.313-3.441-1.011
				c-0.891-0.674-1.276-1.685-1.276-2.383c0-0.192,0.048-0.722,0.481-1.203c0.264-0.289,0.842-0.842,2.214-1.781
				c0.048-0.024,0.072-0.048,0.072-0.097c0-0.048-0.048-0.096-0.096-0.12c-1.131-0.433-1.468-1.131-1.564-1.516v-0.048
				c-0.024-0.144-0.072-0.289,0.145-0.433c0.168-0.12,0.409-0.265,0.674-0.433c0.409-0.241,0.842-0.506,1.107-0.722
				c0.048-0.048,0.048-0.096,0.048-0.144s-0.048-0.097-0.097-0.12c-1.684-0.554-2.527-1.805-2.527-3.682
				c0-1.227,0.553-2.334,1.54-3.032c0.674-0.529,2.359-1.179,3.466-1.179h0.072c1.131,0.024,1.757,0.265,2.647,0.578
				c0.481,0.168,0.939,0.24,1.565,0.24c0.938,0,1.347-0.289,1.684-0.625c0.024,0.048,0.073,0.168,0.097,0.481
				c0.024,0.313-0.072,0.77-0.313,1.107c-0.192,0.265-0.626,0.457-1.059,0.457h-0.12c-0.433-0.048-0.626-0.097-0.626-0.097
				l-0.096,0.048c-0.024,0.048,0,0.096,0.024,0.168l0.024,0.048c0.048,0.216,0.144,0.866,0.144,1.035c0,1.973-0.794,2.839-1.636,3.489
				c-0.818,0.602-1.757,0.987-2.816,1.083c-0.024,0-0.12,0-0.337,0.024c-0.12,0-0.289,0.024-0.313,0.024h-0.024
				c-0.192,0.048-0.674,0.289-0.674,0.698c0,0.361,0.216,0.794,1.251,0.867c0.216,0.024,0.433,0.024,0.674,0.048
				c1.372,0.096,3.08,0.216,3.875,0.481c1.107,0.409,1.805,1.396,1.805,2.575c0,1.781-1.275,3.442-3.393,4.476
				C79.775,37.759,78.74,38,77.609,38L77.609,38z M91.326,21.226c-0.505,0-0.963,0.12-1.299,0.361c-0.938,0.578-1.42,1.733-1.42,3.417
				c0,3.153,1.588,5.367,3.851,5.367c0.674,0,1.203-0.193,1.66-0.578c0.698-0.578,1.059-1.733,1.059-3.345
				C95.177,23.32,93.613,21.226,91.326,21.226L91.326,21.226z M91.76,31.526c-4.091,0-5.559-3.008-5.559-5.824
				c0-1.973,0.794-3.49,2.382-4.573c1.131-0.698,2.479-1.083,3.682-1.083c3.128,0,5.318,2.238,5.318,5.463
				c0,2.19-0.866,3.922-2.527,4.982C94.262,31.021,92.891,31.526,91.76,31.526L91.76,31.526L91.76,31.526z M48.874,21.226
				c-0.505,0-0.963,0.12-1.3,0.361c-0.938,0.578-1.42,1.733-1.42,3.417c0,3.153,1.588,5.367,3.851,5.367
				c0.674,0,1.203-0.193,1.661-0.578c0.698-0.578,1.059-1.733,1.059-3.345C52.725,23.32,51.185,21.226,48.874,21.226L48.874,21.226z
				M49.307,31.526c-4.091,0-5.559-3.008-5.559-5.824c0-1.973,0.794-3.49,2.382-4.573c1.131-0.698,2.479-1.083,3.682-1.083
				c3.129,0,5.318,2.238,5.318,5.463c0,2.19-0.866,3.922-2.527,4.982C51.834,31.021,50.462,31.526,49.307,31.526L49.307,31.526z
				M21.8,31.286c-0.048-0.072-0.097-0.289-0.072-0.553c0-0.193,0.048-0.313,0.072-0.361c0.505-0.072,0.77-0.145,1.059-0.217
				c0.481-0.12,0.674-0.385,0.698-0.987c0.072-1.444,0.072-4.188,0.048-6.089v-0.048c0-0.216,0-0.481-0.265-0.674
				c-0.385-0.24-0.842-0.457-1.444-0.626c-0.216-0.072-0.361-0.192-0.337-0.336c0-0.144,0.144-0.313,0.457-0.361
				c0.794-0.072,2.863-0.577,3.682-0.939c0.048,0.048,0.12,0.193,0.12,0.385l-0.024,0.264c-0.024,0.265-0.048,0.578-0.048,0.891
				c0,0.096,0.097,0.168,0.192,0.168c0.048,0,0.097-0.024,0.144-0.048c1.54-1.203,2.936-1.636,3.658-1.636
				c1.18,0,2.094,0.554,2.792,1.709c0.048,0.072,0.096,0.097,0.168,0.097c0.048,0,0.12-0.024,0.144-0.072
				c1.42-1.083,2.84-1.733,3.778-1.733c2.238,0,3.562,1.661,3.562,4.476c0,0.794,0,1.829-0.024,2.768c0,0.842-0.024,1.612-0.024,2.166
				c0,0.12,0.168,0.505,0.433,0.577c0.337,0.168,0.794,0.241,1.396,0.337h0.024c0.048,0.168-0.048,0.794-0.144,0.915
				c-0.144,0-0.361,0-0.602-0.024c-0.609-0.032-1.219-0.048-1.829-0.048c-1.492,0-2.262,0.024-3.008,0.072
				c-0.048-0.192-0.072-0.77,0-0.915c0.433-0.072,0.65-0.144,0.915-0.216c0.481-0.144,0.602-0.361,0.626-0.987
				c0-0.457,0.096-4.356-0.048-5.294c-0.144-0.963-0.866-2.094-2.455-2.094c-0.602,0-1.54,0.241-2.455,0.938
				c-0.048,0.048-0.097,0.168-0.097,0.241v0.024c0.097,0.505,0.097,1.083,0.097,1.973v1.564c0,1.083-0.024,2.094,0,2.864
				c0,0.53,0.313,0.65,0.578,0.746c0.144,0.024,0.24,0.048,0.361,0.072c0.216,0.048,0.433,0.097,0.77,0.168
				c0.048,0.097,0.048,0.409-0.024,0.674c-0.024,0.144-0.072,0.216-0.097,0.241c-0.818-0.024-1.66-0.048-2.888-0.048
				c-0.361,0-0.987,0.024-1.516,0.024c-0.433,0-0.842,0.024-1.083,0.024c-0.024-0.048-0.072-0.216-0.072-0.481
				c0-0.216,0.048-0.385,0.097-0.433c0.12-0.024,0.216-0.048,0.337-0.048c0.288-0.048,0.529-0.097,0.77-0.144
				c0.409-0.12,0.554-0.337,0.578-0.866c0.072-1.203,0.144-4.645-0.024-5.511c-0.289-1.396-1.083-2.094-2.359-2.094
				c-0.746,0-1.685,0.361-2.455,0.939c-0.12,0.096-0.217,0.336-0.217,0.553v1.42c0,1.733,0,3.899,0.024,4.837
				c0.024,0.288,0.12,0.626,0.674,0.746c0.12,0.024,0.313,0.072,0.554,0.097l0.433,0.072c0.048,0.144,0.024,0.722-0.072,0.915
				c-0.241,0-0.529-0.024-0.867-0.024c-0.505-0.024-1.155-0.048-1.877-0.048c-0.842,0-1.444,0.024-1.925,0.048
				C22.354,31.286,22.089,31.286,21.8,31.286L21.8,31.286z"/>
				<path fill="#FFFFFF" d="M9.141,37.061l-0.987-0.337c0,0,0.12-5.03-1.685-5.39c-1.203-1.396,0.193-59.202,4.525-0.193
					c0,0-1.492,0.746-1.757,2.022C8.949,34.414,9.141,37.061,9.141,37.061L9.141,37.061z"/>
					<path fill="#A6A385" d="M9.141,37.061l-0.987-0.337c0,0,0.12-5.03-1.685-5.39c-1.203-1.396,0.193-59.202,4.525-0.193
						c0,0-1.492,0.746-1.757,2.022C8.949,34.414,9.141,37.061,9.141,37.061L9.141,37.061z"/>
						<path fill="#FFFFFF" d="M9.671,32.2c0,0,8.64-5.68,6.618-17.496C14.34,6.113,9.743,3.297,9.238,2.214
							c-0.553-0.77-1.083-2.118-1.083-2.118l0.361,23.897C8.516,24.018,7.77,31.31,9.671,32.2"/>
							<path fill="#499D4A" d="M9.671,32.2c0,0,8.64-5.68,6.618-17.496C14.34,6.113,9.743,3.297,9.238,2.214
								c-0.553-0.77-1.083-2.118-1.083-2.118l0.361,23.897C8.516,24.018,7.77,31.31,9.671,32.2"/>
								<path fill="#FFFFFF" d="M7.65,32.513c0,0-8.11-5.535-7.629-15.282C0.478,7.485,6.205,2.696,7.312,1.829
									C8.035,1.059,8.059,0.77,8.107,0c0.505,1.083,0.409,16.196,0.481,17.977C8.804,24.836,8.203,31.214,7.65,32.513z"/>
									<path fill="#58AA50" d="M7.65,32.513c0,0-8.11-5.535-7.629-15.282C0.478,7.485,6.205,2.696,7.312,1.829
										C8.035,1.059,8.059,0.77,8.107,0c0.505,1.083,0.409,16.196,0.481,17.977C8.804,24.836,8.203,31.214,7.65,32.513z"/>
									</g>
								</svg>
