<?xml version="1.0" encoding="utf-8"?>
<!-- Generator: Adobe Illustrator 24.0.2, SVG Export Plug-In . SVG Version: 6.00 Build 0)  -->
<svg version="1.1" id="svg115845" xmlns:svg="http://www.w3.org/2000/svg"
	xmlns="http://www.w3.org/2000/svg" xmlns:xlink="http://www.w3.org/1999/xlink" x="0px" y="0px" viewBox="0 0 638.035 79.976"
	enable-background="new 0 0 638.035 79.976" xml:space="preserve" width="129" height="15">
	<g id="layer1" transform="translate(-702.6538,-712.5837)">
		<g id="g16337">
			<path id="path16197" fill="#F80000" d="M968.245,764.616h40.652l-21.495-34.583l-39.451,62.527h-17.955l47.986-75.108
				c2.086-3.035,5.564-4.868,9.42-4.868c3.73,0,7.207,1.77,9.23,4.742l48.176,75.235h-17.955l-8.472-13.972h-41.158L968.245,764.616z
				M1154.752,778.588v-65.246h-15.237v71.631c0,1.96,0.759,3.857,2.213,5.311c1.454,1.454,3.414,2.276,5.563,2.276h69.482
				l8.978-13.972H1154.752z M902.684,766.892c14.794,0,26.807-11.949,26.807-26.743s-12.012-26.806-26.807-26.806h-66.656v79.218
				h15.231v-65.246h50.414c7.081,0,12.771,5.753,12.771,12.834c0,7.081-5.69,12.834-12.771,12.834l-42.953-0.063l45.482,39.641
				h22.128l-30.6-25.668H902.684z M742.269,792.56c-21.869,0-39.616-17.702-39.616-39.577c0-21.875,17.747-39.641,39.616-39.641
				h46.045c21.875,0,39.609,17.766,39.609,39.641c0,21.875-17.734,39.577-39.609,39.577H742.269z M787.29,778.588
				c14.168,0,25.643-11.443,25.643-25.605c0-14.162-11.475-25.668-25.643-25.668h-44.003c-14.162,0-25.643,11.506-25.643,25.668
				c0,14.162,11.481,25.605,25.643,25.605H787.29z M1076.608,792.56c-21.875,0-39.64-17.702-39.64-39.577
				c0-21.875,17.765-39.641,39.64-39.641h54.688l-8.914,13.972h-44.762c-14.162,0-25.668,11.506-25.668,25.668
				c0,14.162,11.506,25.605,25.668,25.605h54.94l-8.977,13.972H1076.608z M1262.925,778.588c-11.696,0-21.622-7.84-24.657-18.651
				h65.119l8.978-13.972h-74.097c3.035-10.748,12.961-18.651,24.657-18.651h44.698l9.041-13.972h-54.751
				c-21.875,0-39.64,17.766-39.64,39.641c0,21.875,17.765,39.577,39.64,39.577h46.974l8.977-13.972H1262.925"/>
				<path id="path16199" fill="#F80000" d="M1324.82,721.751c0-3.857,3.097-6.954,6.954-6.954c3.92,0,7.018,3.098,7.018,6.954
					c0,3.92-3.098,7.018-7.018,7.018C1327.917,728.769,1324.82,725.671,1324.82,721.751z M1331.774,730.729
					c4.931,0,8.914-3.983,8.914-8.914s-3.983-8.914-8.914-8.914c-4.868,0-8.851,3.983-8.851,8.914S1326.906,730.729,1331.774,730.729z
					M1330.952,716.503c1.391,0,1.96,0.063,2.592,0.316c1.77,0.569,1.96,2.15,1.96,2.782c0,0.126,0,0.443-0.126,0.822
					c-0.063,0.379-0.316,1.138-1.201,1.707c-0.126,0.063-0.19,0.126-0.442,0.253l2.276,4.109h-2.213l-2.023-3.793h-1.391v3.793h-1.96
					v-9.989H1330.952z M1331.648,721.055c0.632-0.063,1.264-0.063,1.644-0.632c0.19-0.253,0.253-0.506,0.253-0.885
					c0-0.506-0.316-0.948-0.759-1.201c-0.443-0.19-0.885-0.19-1.833-0.19h-0.569v2.908H1331.648"/>
				</g>
			</g>
		</svg>
