<?xml version="1.0" encoding="utf-8"?>
<!-- Generator: Adobe Illustrator 24.0.2, SVG Export Plug-In . SVG Version: 6.00 Build 0)  -->
<svg version="1.1" id="Layer_1" xmlns="http://www.w3.org/2000/svg" xmlns:xlink="http://www.w3.org/1999/xlink" x="0px" y="0px"
	viewBox="0 0 250.5 126.88" enable-background="new 0 0 250.5 126.88" xml:space="preserve" width="82" height="41">
	<g>
		<ellipse fill="#6181B6" cx="125.25" cy="63.44" rx="125.25" ry="63.44"/>
		<g>
			<path fill="#FFFFFF" d="M73.8,43.2c5.6,0,9.3,1,11.2,3.1c1.9,2.1,2.3,5.6,1.3,10.6c-1,5.2-3,9-5.9,11.2s-7.3,3.3-13.2,3.3h-8.9
				l5.5-28.2H73.8z M38,100h14.7l3.5-17.9h12.6c5.6,0,10.1-0.6,13.7-1.8c3.6-1.2,6.8-3.1,9.8-5.9c2.5-2.3,4.5-4.8,6-7.5
				s2.6-5.7,3.2-9c1.6-8,0.4-14.2-3.5-18.7s-10.1-6.7-18.6-6.7H51.1L38,100z"/>
				<path fill="#FFFFFF" d="M112.3,14.6h14.6l-3.5,17.9h13c8.2,0,13.8,1.4,16.9,4.3c3.1,2.9,4,7.5,2.8,13.9L150,82.1h-14.8l5.8-29.9
					c0.7-3.4,0.4-5.7-0.7-6.9c-1.1-1.2-3.6-1.9-7.3-1.9h-11.7l-7.5,38.7H99.2L112.3,14.6z"/>
					<path fill="#FFFFFF" d="M188.5,43.2c5.6,0,9.3,1,11.2,3.1s2.3,5.6,1.3,10.6c-1,5.2-3,9-5.9,11.2s-7.3,3.3-13.2,3.3H173l5.5-28.2
						H188.5z M152.7,100h14.7l3.5-17.9h12.6c5.6,0,10.1-0.6,13.7-1.8c3.6-1.2,6.8-3.1,9.8-5.9c2.5-2.3,4.5-4.8,6-7.5s2.6-5.7,3.2-9
						c1.6-8,0.4-14.2-3.5-18.7s-10.1-6.7-18.6-6.7h-28.3L152.7,100z"/>
					</g>
				</g>
			</svg>
