<?xml version="1.0" encoding="utf-8"?>
<!-- Generator: Adobe Illustrator 24.0.2, SVG Export Plug-In . SVG Version: 6.00 Build 0)  -->
<svg version="1.1" id="Layer_1" xmlns:sketch="http://www.bohemiancoding.com/sketch/ns"
	xmlns="http://www.w3.org/2000/svg" xmlns:xlink="http://www.w3.org/1999/xlink" x="0px" y="0px" viewBox="0 0 398.851 91.001"
	enable-background="new 0 0 398.851 91.001" xml:space="preserve" width="141" height="33">
	<title>xamarin-logo</title>
	<desc>Created with Sketch.</desc>
	<g id="Page-1" sketch:type="MSPage">
		<g id="xamarin-logo" sketch:type="MSArtboardGroup">
			<path id="Logo" sketch:type="MSShapeGroup" fill="#3498DB" d="M159.83,71.226l-10.316-19.794l-10.552,19.794h-11.346
				l16.087-25.547L129.225,20.29h11.503l9.393,19.29L160.3,20.29h10.522l-14.87,25.232l15.106,25.704H159.83z M196.616,71.226v-5.544
				h-0.157c-2.801,4.351-6.766,6.527-11.896,6.527c-3.952,0-7.067-1.075-9.344-3.224c-2.277-2.176-3.416-5.085-3.416-8.728
				c0-7.811,4.384-12.254,13.152-13.329l11.739-1.612c0-5.478-2.539-8.217-7.617-8.217c-4.842,0-9.292,1.494-13.349,4.482V33.56
				c1.518-0.917,3.69-1.743,6.517-2.477c2.853-0.734,5.444-1.101,7.774-1.101c10.365,0,15.547,5.242,15.547,15.727v25.517H196.616
				L196.616,71.226z M188.018,52.786c-2.696,0.341-4.593,1.009-5.693,2.005c-1.073,0.97-1.61,2.477-1.61,4.521
				c0,1.678,0.615,3.054,1.845,4.128c1.23,1.048,2.84,1.573,4.829,1.573c2.696,0,4.921-0.931,6.674-2.792
				c1.754-1.861,2.63-4.181,2.63-6.959v-3.617L188.018,52.786L188.018,52.786z M263.452,71.226V48.501
				c0-3.748-0.589-6.527-1.767-8.335c-1.152-1.835-3.22-2.752-6.203-2.752c-2.382,0-4.384,1.101-6.007,3.303
				c-1.623,2.176-2.434,4.81-2.434,7.903v22.607h-9.069V47.715c0-6.867-2.631-10.301-7.891-10.301c-2.46,0-4.489,1.035-6.085,3.106
				c-1.57,2.071-2.356,4.771-2.356,8.099v22.607h-9.069V30.965h9.069v6.212h0.157c2.905-4.797,7.145-7.195,12.72-7.195
				c2.67,0,5.025,0.708,7.067,2.123c2.068,1.389,3.52,3.316,4.358,5.78c3.062-5.268,7.564-7.903,13.506-7.903
				c8.742,0,13.113,5.452,13.113,16.356v24.888H263.452L263.452,71.226z M302.711,71.226v-5.544h-0.157
				c-2.801,4.351-6.766,6.527-11.896,6.527c-3.952,0-7.067-1.075-9.344-3.224c-2.277-2.176-3.416-5.085-3.416-8.728
				c0-7.811,4.384-12.254,13.152-13.329l11.739-1.612c0-5.478-2.539-8.217-7.617-8.217c-4.842,0-9.292,1.494-13.349,4.482V33.56
				c1.518-0.917,3.69-1.743,6.517-2.477c2.853-0.734,5.444-1.101,7.774-1.101c10.365,0,15.547,5.242,15.547,15.727v25.517H302.711
				L302.711,71.226z M294.113,52.786c-2.696,0.341-4.593,1.009-5.693,2.005c-1.073,0.97-1.61,2.477-1.61,4.521
				c0,1.678,0.615,3.054,1.845,4.128c1.23,1.048,2.84,1.573,4.829,1.573c2.696,0,4.921-0.931,6.674-2.792
				c1.754-1.861,2.63-4.181,2.63-6.959v-3.617L294.113,52.786L294.113,52.786z M342.041,39.811c-1.492-0.917-3.246-1.376-5.261-1.376
				c-2.617,0-4.75,1.127-6.399,3.381c-1.623,2.254-2.434,5.19-2.434,8.807v20.602h-9.069v-40.26h9.069v7.824h0.157
				c1.937-5.688,5.366-8.532,10.286-8.532c1.597,0,2.814,0.183,3.651,0.55L342.041,39.811L342.041,39.811z M351.07,21.961
				c-1.544,0-2.853-0.498-3.926-1.494c-1.073-1.022-1.61-2.267-1.61-3.735c0-1.52,0.537-2.791,1.61-3.814
				c1.073-1.022,2.382-1.533,3.926-1.533c1.57,0,2.892,0.524,3.965,1.573c1.073,1.022,1.61,2.28,1.61,3.774
				c0,1.468-0.537,2.713-1.61,3.735C353.962,21.463,352.64,21.961,351.07,21.961z M346.437,71.226V30.965h9.069v40.261H346.437z
				M389.782,71.226V48.619c0-7.47-2.683-11.205-8.048-11.205c-2.696,0-4.96,1.035-6.792,3.106c-1.806,2.045-2.709,4.653-2.709,7.824
				v22.883h-9.069V30.965h9.069v6.448h0.157c2.931-4.954,7.276-7.431,13.034-7.431c8.951,0,13.427,5.504,13.427,16.513v24.731
				H389.782L389.782,71.226z M29.431,0.001c-2.755,0.006-5.451,1.574-6.838,3.966L1.024,41.535c-1.365,2.398-1.365,5.533,0,7.931
				l21.569,37.569c1.387,2.392,4.083,3.96,6.838,3.966h43.138c2.755-0.006,5.451-1.574,6.838-3.966l21.569-37.569
				c1.365-2.398,1.365-5.533,0-7.931L79.407,3.966C78.02,1.574,75.324,0.006,72.569,0H29.431V0.001z M29.823,21.979
				c0.059-0.006,0.121-0.006,0.181,0h7.441c0.329,0.007,0.649,0.198,0.813,0.484L50.88,45.016c0.064,0.112,0.104,0.236,0.12,0.363
				c0.016-0.128,0.056-0.252,0.12-0.363l12.592-22.553c0.17-0.295,0.504-0.487,0.843-0.484h7.441
				c0.659,0.006,1.152,0.838,0.844,1.423L60.518,45.501L72.839,67.57c0.338,0.588-0.168,1.459-0.844,1.453h-7.441
				c-0.345-0.003-0.682-0.208-0.843-0.515L51.12,45.955c-0.064-0.112-0.104-0.236-0.12-0.363c-0.016,0.128-0.056,0.252-0.12,0.363
				L38.258,68.508c-0.157,0.298-0.478,0.501-0.813,0.515h-7.441c-0.676,0.006-1.181-0.865-0.843-1.453l12.32-22.069L29.16,23.402
				C28.865,22.868,29.225,22.093,29.823,21.979L29.823,21.979z"/>
			</g>
		</g>
	</svg>
